<mxfile host="app.diagrams.net" modified="2023-11-01T23:45:01.939Z" agent="Mozilla/5.0 (Macintosh; Intel Mac OS X 10_15_7) AppleWebKit/537.36 (KHTML, like Gecko) Chrome/113.0.0.0 Safari/537.36" etag="28HHmnlMZTFna2OD653b" version="22.0.8" type="device">
  <diagram name="Page-1" id="zCsPdwlNrmpxv8cruGS8">
    <mxGraphModel dx="1590" dy="865" grid="1" gridSize="10" guides="1" tooltips="1" connect="1" arrows="1" fold="1" page="1" pageScale="1" pageWidth="850" pageHeight="1100" math="0" shadow="0">
      <root>
        <mxCell id="0" />
        <mxCell id="1" parent="0" />
        <mxCell id="i1yW9Uujd4VMV7ywu36w-8" value="User" style="swimlane;childLayout=stackLayout;horizontal=1;startSize=50;horizontalStack=0;rounded=1;fontSize=14;fontStyle=0;strokeWidth=2;resizeParent=0;resizeLast=1;shadow=0;dashed=0;align=center;arcSize=4;whiteSpace=wrap;html=1;" vertex="1" parent="1">
          <mxGeometry x="310" y="40" width="210" height="200" as="geometry" />
        </mxCell>
        <mxCell id="i1yW9Uujd4VMV7ywu36w-9" value="+name &amp;lt;str&amp;gt;&lt;br&gt;+weight &amp;lt;float&amp;gt;&lt;br&gt;+height &amp;lt;int, int&amp;gt;&lt;br&gt;+age &amp;lt;int&amp;gt;&lt;br&gt;+gender &amp;lt;str&amp;gt;&lt;br&gt;+date of birth &amp;lt;str&amp;gt;" style="align=left;strokeColor=none;fillColor=none;spacingLeft=4;fontSize=12;verticalAlign=top;resizable=0;rotatable=0;part=1;html=1;" vertex="1" parent="i1yW9Uujd4VMV7ywu36w-8">
          <mxGeometry y="50" width="210" height="150" as="geometry" />
        </mxCell>
        <mxCell id="i1yW9Uujd4VMV7ywu36w-10" value="Exercise" style="swimlane;childLayout=stackLayout;horizontal=1;startSize=50;horizontalStack=0;rounded=1;fontSize=14;fontStyle=0;strokeWidth=2;resizeParent=0;resizeLast=1;shadow=0;dashed=0;align=center;arcSize=4;whiteSpace=wrap;html=1;" vertex="1" parent="1">
          <mxGeometry x="310" y="550" width="210" height="100" as="geometry" />
        </mxCell>
        <mxCell id="i1yW9Uujd4VMV7ywu36w-11" value="+start time &amp;lt;timestamp&amp;gt;&lt;br&gt;+end time &amp;lt;timestamp&amp;gt;" style="align=left;strokeColor=none;fillColor=none;spacingLeft=4;fontSize=12;verticalAlign=top;resizable=0;rotatable=0;part=1;html=1;" vertex="1" parent="i1yW9Uujd4VMV7ywu36w-10">
          <mxGeometry y="50" width="210" height="50" as="geometry" />
        </mxCell>
        <mxCell id="i1yW9Uujd4VMV7ywu36w-12" value="Running" style="swimlane;childLayout=stackLayout;horizontal=1;startSize=50;horizontalStack=0;rounded=1;fontSize=14;fontStyle=0;strokeWidth=2;resizeParent=0;resizeLast=1;shadow=0;dashed=0;align=center;arcSize=4;whiteSpace=wrap;html=1;" vertex="1" parent="1">
          <mxGeometry x="140" y="750" width="210" height="100" as="geometry" />
        </mxCell>
        <mxCell id="i1yW9Uujd4VMV7ywu36w-13" value="+distance &amp;lt;float&amp;gt;" style="align=left;strokeColor=none;fillColor=none;spacingLeft=4;fontSize=12;verticalAlign=top;resizable=0;rotatable=0;part=1;html=1;" vertex="1" parent="i1yW9Uujd4VMV7ywu36w-12">
          <mxGeometry y="50" width="210" height="50" as="geometry" />
        </mxCell>
        <mxCell id="i1yW9Uujd4VMV7ywu36w-14" value="Weightlifting" style="swimlane;childLayout=stackLayout;horizontal=1;startSize=50;horizontalStack=0;rounded=1;fontSize=14;fontStyle=0;strokeWidth=2;resizeParent=0;resizeLast=1;shadow=0;dashed=0;align=center;arcSize=4;whiteSpace=wrap;html=1;" vertex="1" parent="1">
          <mxGeometry x="490" y="750" width="210" height="140" as="geometry" />
        </mxCell>
        <mxCell id="i1yW9Uujd4VMV7ywu36w-15" value="+name &amp;lt;str&amp;gt;&lt;br&gt;+weight &amp;lt;float&amp;gt;&lt;br&gt;+set &amp;lt;int&amp;gt;&lt;br&gt;+rep &amp;lt;int&amp;gt;" style="align=left;strokeColor=none;fillColor=none;spacingLeft=4;fontSize=12;verticalAlign=top;resizable=0;rotatable=0;part=1;html=1;" vertex="1" parent="i1yW9Uujd4VMV7ywu36w-14">
          <mxGeometry y="50" width="210" height="90" as="geometry" />
        </mxCell>
        <mxCell id="i1yW9Uujd4VMV7ywu36w-20" style="edgeStyle=orthogonalEdgeStyle;rounded=0;orthogonalLoop=1;jettySize=auto;html=1;exitX=0.5;exitY=1;exitDx=0;exitDy=0;entryX=0.5;entryY=0;entryDx=0;entryDy=0;startArrow=diamondThin;startFill=1;endSize=11;startSize=13;endArrow=none;endFill=0;" edge="1" parent="1" source="i1yW9Uujd4VMV7ywu36w-9" target="i1yW9Uujd4VMV7ywu36w-41">
          <mxGeometry relative="1" as="geometry" />
        </mxCell>
        <mxCell id="i1yW9Uujd4VMV7ywu36w-23" style="edgeStyle=orthogonalEdgeStyle;rounded=0;orthogonalLoop=1;jettySize=auto;html=1;entryX=0.557;entryY=-0.022;entryDx=0;entryDy=0;entryPerimeter=0;endArrow=none;endFill=0;endSize=10;startSize=10;startArrow=block;startFill=0;exitX=1.008;exitY=0.197;exitDx=0;exitDy=0;exitPerimeter=0;" edge="1" parent="1" source="i1yW9Uujd4VMV7ywu36w-11" target="i1yW9Uujd4VMV7ywu36w-14">
          <mxGeometry relative="1" as="geometry">
            <mxPoint x="530" y="610" as="sourcePoint" />
            <Array as="points">
              <mxPoint x="530" y="610" />
              <mxPoint x="607" y="610" />
            </Array>
          </mxGeometry>
        </mxCell>
        <mxCell id="i1yW9Uujd4VMV7ywu36w-27" value="logs" style="text;html=1;strokeColor=none;fillColor=none;align=center;verticalAlign=middle;whiteSpace=wrap;rounded=0;" vertex="1" parent="1">
          <mxGeometry x="340" y="250" width="60" height="30" as="geometry" />
        </mxCell>
        <mxCell id="i1yW9Uujd4VMV7ywu36w-28" value="a type of" style="text;html=1;strokeColor=none;fillColor=none;align=center;verticalAlign=middle;whiteSpace=wrap;rounded=0;" vertex="1" parent="1">
          <mxGeometry x="610" y="660" width="60" height="30" as="geometry" />
        </mxCell>
        <mxCell id="i1yW9Uujd4VMV7ywu36w-29" value="a type of" style="text;html=1;strokeColor=none;fillColor=none;align=center;verticalAlign=middle;whiteSpace=wrap;rounded=0;" vertex="1" parent="1">
          <mxGeometry x="130" y="660" width="60" height="30" as="geometry" />
        </mxCell>
        <mxCell id="i1yW9Uujd4VMV7ywu36w-37" style="edgeStyle=orthogonalEdgeStyle;rounded=0;orthogonalLoop=1;jettySize=auto;html=1;entryX=0.382;entryY=0.002;entryDx=0;entryDy=0;entryPerimeter=0;endArrow=none;endFill=0;endSize=10;startSize=10;startArrow=block;startFill=0;exitX=-0.001;exitY=0.205;exitDx=0;exitDy=0;exitPerimeter=0;" edge="1" parent="1" source="i1yW9Uujd4VMV7ywu36w-11">
          <mxGeometry relative="1" as="geometry">
            <mxPoint x="300" y="610" as="sourcePoint" />
            <mxPoint x="200.10999999999996" y="750.1999999999999" as="targetPoint" />
            <Array as="points">
              <mxPoint x="290" y="610" />
              <mxPoint x="200" y="610" />
            </Array>
          </mxGeometry>
        </mxCell>
        <mxCell id="i1yW9Uujd4VMV7ywu36w-41" value="Workout" style="swimlane;childLayout=stackLayout;horizontal=1;startSize=50;horizontalStack=0;rounded=1;fontSize=14;fontStyle=0;strokeWidth=2;resizeParent=0;resizeLast=1;shadow=0;dashed=0;align=center;arcSize=4;whiteSpace=wrap;html=1;" vertex="1" parent="1">
          <mxGeometry x="310" y="300" width="210" height="100" as="geometry" />
        </mxCell>
        <mxCell id="i1yW9Uujd4VMV7ywu36w-42" value="+date &amp;lt;date&amp;gt;&lt;br&gt;+total time &amp;lt;int&amp;gt;" style="align=left;strokeColor=none;fillColor=none;spacingLeft=4;fontSize=12;verticalAlign=top;resizable=0;rotatable=0;part=1;html=1;" vertex="1" parent="i1yW9Uujd4VMV7ywu36w-41">
          <mxGeometry y="50" width="210" height="50" as="geometry" />
        </mxCell>
        <mxCell id="i1yW9Uujd4VMV7ywu36w-43" style="edgeStyle=orthogonalEdgeStyle;rounded=0;orthogonalLoop=1;jettySize=auto;html=1;entryX=0.382;entryY=0.002;entryDx=0;entryDy=0;entryPerimeter=0;endArrow=none;endFill=0;endSize=10;startSize=10;startArrow=diamondThin;startFill=1;exitX=0.476;exitY=1.023;exitDx=0;exitDy=0;exitPerimeter=0;" edge="1" parent="1" source="i1yW9Uujd4VMV7ywu36w-42">
          <mxGeometry relative="1" as="geometry">
            <mxPoint x="550" y="460" as="sourcePoint" />
            <mxPoint x="410.10999999999996" y="550.1999999999999" as="targetPoint" />
            <Array as="points" />
          </mxGeometry>
        </mxCell>
        <mxCell id="i1yW9Uujd4VMV7ywu36w-44" value="contains" style="text;html=1;strokeColor=none;fillColor=none;align=center;verticalAlign=middle;whiteSpace=wrap;rounded=0;" vertex="1" parent="1">
          <mxGeometry x="340" y="450" width="60" height="30" as="geometry" />
        </mxCell>
        <mxCell id="i1yW9Uujd4VMV7ywu36w-45" value="*" style="text;html=1;strokeColor=none;fillColor=none;align=center;verticalAlign=middle;whiteSpace=wrap;rounded=0;" vertex="1" parent="1">
          <mxGeometry x="380" y="520" width="25" height="30" as="geometry" />
        </mxCell>
        <mxCell id="i1yW9Uujd4VMV7ywu36w-46" value="1" style="text;html=1;strokeColor=none;fillColor=none;align=center;verticalAlign=middle;whiteSpace=wrap;rounded=0;" vertex="1" parent="1">
          <mxGeometry x="380" y="400" width="25" height="30" as="geometry" />
        </mxCell>
        <mxCell id="i1yW9Uujd4VMV7ywu36w-48" value="1" style="text;html=1;strokeColor=none;fillColor=none;align=center;verticalAlign=middle;whiteSpace=wrap;rounded=0;" vertex="1" parent="1">
          <mxGeometry x="390" y="240" width="25" height="30" as="geometry" />
        </mxCell>
        <mxCell id="i1yW9Uujd4VMV7ywu36w-49" value="*" style="text;html=1;strokeColor=none;fillColor=none;align=center;verticalAlign=middle;whiteSpace=wrap;rounded=0;" vertex="1" parent="1">
          <mxGeometry x="390" y="270" width="25" height="30" as="geometry" />
        </mxCell>
      </root>
    </mxGraphModel>
  </diagram>
</mxfile>
